# xmcd CD database file
#
# Track frame offsets:
#	150
#	21240
#	38965
#	59880
#	79730
#	99542
#	115147
#	132960
#	153282
#	173865
#
# Disc length: 2565 seconds
#
# Revision: 0
# Processed by: cddbd v1.5.2PL0 Copyright (c) Steve Scherf et al.
# Submitted via: CDex 1.70beta3
#
DISCID=830a030a
DTITLE=Ace - Time For Another
DYEAR=1975
DGENRE=Country
TTITLE0=I Think It's Gonna Last
TTITLE1=I'm A Man
TTITLE2=Tongue Tied
TTITLE3=Does It Hurt You
TTITLE4=Message To You
TTITLE5=No Future In Your Eyes
TTITLE6=This Is What You Find
TTITLE7=You Can't Lose
TTITLE8=Sail On My Brother
TTITLE9=Ain't Gonna Stand For This No More
EXTD=YEAR: 1975
EXTT0=
EXTT1=
EXTT2=
EXTT3=
EXTT4=
EXTT5=
EXTT6=
EXTT7=
EXTT8=
EXTT9=
PLAYORDER=
